<svg id="Group_2593" data-name="Group 2593" xmlns="http://www.w3.org/2000/svg" xmlns:xlink="http://www.w3.org/1999/xlink" width="98.947" height="60" viewBox="0 0 98.947 60">
  <defs>
    <clipPath id="clip-path">
      <rect id="Rectangle_40" data-name="Rectangle 40" width="98.947" height="60" transform="translate(0 0)" fill="#fff"/>
    </clipPath>
  </defs>
  <g id="Group_83" data-name="Group 83" transform="translate(0 0)" clip-path="url(#clip-path)">
    <path id="Path_131" data-name="Path 131" d="M25.99,21.626a9.4,9.4,0,0,0,.377,2.957A15.356,15.356,0,0,0,27.44,26.96a1.549,1.549,0,0,1,.231.753,1.27,1.27,0,0,1-.638.986l-2.088,1.391a1.662,1.662,0,0,1-.869.291,1.387,1.387,0,0,1-.986-.464A7.617,7.617,0,0,1,21.9,28.381q-.493-.84-1.014-1.943a12.244,12.244,0,0,1-9.741,4.581,9.055,9.055,0,0,1-6.61-2.377A8.5,8.5,0,0,1,2.1,22.263a8.524,8.524,0,0,1,3.015-6.811,12.063,12.063,0,0,1,8.117-2.581,24.908,24.908,0,0,1,3.507.261q1.826.26,3.8.723V11.421q0-3.766-1.564-5.3T13.582,4.579a15.428,15.428,0,0,0-3.567.434A25.556,25.556,0,0,0,6.45,6.146a9.166,9.166,0,0,1-1.16.434,2.4,2.4,0,0,1-.522.088q-.7,0-.7-1.044V4A2.191,2.191,0,0,1,4.3,2.84a2.417,2.417,0,0,1,.929-.7A21.58,21.58,0,0,1,9.408.638,20.22,20.22,0,0,1,14.567,0q5.916,0,8.669,2.7t2.754,8.147ZM12.538,26.671a10.661,10.661,0,0,0,3.422-.61,7.224,7.224,0,0,0,3.131-2.116,5.242,5.242,0,0,0,1.13-2.116,11.161,11.161,0,0,0,.319-2.87V17.568a28.188,28.188,0,0,0-3.043-.552,24.939,24.939,0,0,0-3.1-.2,7.653,7.653,0,0,0-4.928,1.335,4.669,4.669,0,0,0-1.624,3.826,4.688,4.688,0,0,0,1.218,3.507,4.775,4.775,0,0,0,3.479,1.19m26.614,3.595a2.054,2.054,0,0,1-1.275-.321,2.565,2.565,0,0,1-.7-1.3L29.411,3.015A5.83,5.83,0,0,1,29.12,1.68a.718.718,0,0,1,.813-.811h3.246a2.061,2.061,0,0,1,1.305.319,2.774,2.774,0,0,1,.666,1.305L40.716,24.41,45.878,2.493a2.324,2.324,0,0,1,.638-1.305A2.187,2.187,0,0,1,47.848.869h2.666a2.194,2.194,0,0,1,1.335.319,2.35,2.35,0,0,1,.638,1.305L57.7,24.7,63.446,2.493a2.774,2.774,0,0,1,.666-1.305A2.057,2.057,0,0,1,65.417.869H68.49a.718.718,0,0,1,.813.811,2.606,2.606,0,0,1-.06.522,7.107,7.107,0,0,1-.231.813l-8,25.627a2.6,2.6,0,0,1-.7,1.3,2.058,2.058,0,0,1-1.275.321H56.2a2.04,2.04,0,0,1-1.333-.349,2.5,2.5,0,0,1-.638-1.333L49.066,7.248l-5.1,21.337a2.524,2.524,0,0,1-.638,1.333,2.048,2.048,0,0,1-1.333.349Zm42.558.869a22.425,22.425,0,0,1-5.1-.58,14.866,14.866,0,0,1-3.828-1.333,1.927,1.927,0,0,1-1.218-1.855V25.685q0-1.043.755-1.044a1.825,1.825,0,0,1,.608.116c.211.08.492.2.841.349a17.447,17.447,0,0,0,3.653,1.16,19.465,19.465,0,0,0,3.942.407,8.925,8.925,0,0,0,4.842-1.1,3.512,3.512,0,0,0,1.71-3.131,3.2,3.2,0,0,0-.9-2.32,8.557,8.557,0,0,0-3.334-1.74l-4.813-1.507a10.273,10.273,0,0,1-5.3-3.364A7.845,7.845,0,0,1,71.911,8.7a7.37,7.37,0,0,1,.9-3.683A8.881,8.881,0,0,1,75.187,2.29,10.475,10.475,0,0,1,78.637.58,14.708,14.708,0,0,1,82.812,0a17.72,17.72,0,0,1,2.232.143q1.13.146,2.144.379c.678.153,1.305.329,1.885.52a8.712,8.712,0,0,1,1.391.58,3.146,3.146,0,0,1,.986.813,1.863,1.863,0,0,1,.291,1.1V5.1c0,.7-.253,1.044-.755,1.044a3.5,3.5,0,0,1-1.275-.407,15.422,15.422,0,0,0-6.377-1.275,8.683,8.683,0,0,0-4.408.929,3.182,3.182,0,0,0-1.564,2.955,3.143,3.143,0,0,0,.984,2.349A9.851,9.851,0,0,0,82,12.523l4.7,1.509a10.114,10.114,0,0,1,5.131,3.188,7.482,7.482,0,0,1,1.536,4.639,8.382,8.382,0,0,1-.869,3.856,8.776,8.776,0,0,1-2.407,2.927A10.826,10.826,0,0,1,86.407,30.5a16.463,16.463,0,0,1-4.7.638" transform="translate(1.581 0.308)" fill="#fff"/>
    <path id="Path_132" data-name="Path 132" d="M90.064,27.87C79.155,35.921,63.34,40.2,49.722,40.2A73,73,0,0,1,.442,21.4c-1.022-.923-.112-2.18,1.116-1.467A99.206,99.206,0,0,0,50.868,33.017a98.1,98.1,0,0,0,37.61-7.7c1.845-.783,3.392,1.216,1.586,2.549" transform="translate(-0.506 19.891)" fill="#fff" fill-rule="evenodd"/>
    <path id="Path_133" data-name="Path 133" d="M54.27,23.665c-1.395-1.786-9.223-.847-12.74-.424-1.064.128-1.23-.8-.271-1.479,6.245-4.384,16.476-3.119,17.666-1.65s-.315,11.74-6.166,16.634c-.9.753-1.758.353-1.357-.642,1.317-3.29,4.265-10.651,2.868-12.439" transform="translate(39.828 18.913)" fill="#fff" fill-rule="evenodd"/>
    <path id="Path_134" data-name="Path 134" d="M25.99,21.626a9.4,9.4,0,0,0,.377,2.957A15.356,15.356,0,0,0,27.44,26.96a1.549,1.549,0,0,1,.231.753,1.27,1.27,0,0,1-.638.986l-2.088,1.391a1.662,1.662,0,0,1-.869.291,1.387,1.387,0,0,1-.986-.464A7.617,7.617,0,0,1,21.9,28.381q-.493-.84-1.014-1.943a12.244,12.244,0,0,1-9.741,4.581,9.055,9.055,0,0,1-6.61-2.377A8.5,8.5,0,0,1,2.1,22.263a8.524,8.524,0,0,1,3.015-6.811,12.063,12.063,0,0,1,8.117-2.581,24.908,24.908,0,0,1,3.507.261q1.826.26,3.8.723V11.421q0-3.766-1.564-5.3T13.582,4.579a15.428,15.428,0,0,0-3.567.434A25.556,25.556,0,0,0,6.45,6.146a9.166,9.166,0,0,1-1.16.434,2.4,2.4,0,0,1-.522.088q-.7,0-.7-1.044V4A2.191,2.191,0,0,1,4.3,2.84a2.417,2.417,0,0,1,.929-.7A21.58,21.58,0,0,1,9.408.638,20.22,20.22,0,0,1,14.567,0q5.916,0,8.669,2.7t2.754,8.147ZM12.538,26.671a10.661,10.661,0,0,0,3.422-.61,7.224,7.224,0,0,0,3.131-2.116,5.242,5.242,0,0,0,1.13-2.116,11.161,11.161,0,0,0,.319-2.87V17.568a28.188,28.188,0,0,0-3.043-.552,24.939,24.939,0,0,0-3.1-.2,7.653,7.653,0,0,0-4.928,1.335,4.669,4.669,0,0,0-1.624,3.826,4.688,4.688,0,0,0,1.218,3.507,4.775,4.775,0,0,0,3.479,1.19m26.614,3.595a2.054,2.054,0,0,1-1.275-.321,2.565,2.565,0,0,1-.7-1.3L29.411,3.015A5.83,5.83,0,0,1,29.12,1.68a.718.718,0,0,1,.813-.811h3.246a2.061,2.061,0,0,1,1.305.319,2.774,2.774,0,0,1,.666,1.305L40.716,24.41,45.878,2.493a2.324,2.324,0,0,1,.638-1.305A2.187,2.187,0,0,1,47.848.869h2.666a2.194,2.194,0,0,1,1.335.319,2.35,2.35,0,0,1,.638,1.305L57.7,24.7,63.446,2.493a2.774,2.774,0,0,1,.666-1.305A2.057,2.057,0,0,1,65.417.869H68.49a.718.718,0,0,1,.813.811,2.606,2.606,0,0,1-.06.522,7.107,7.107,0,0,1-.231.813l-8,25.627a2.6,2.6,0,0,1-.7,1.3,2.058,2.058,0,0,1-1.275.321H56.2a2.04,2.04,0,0,1-1.333-.349,2.5,2.5,0,0,1-.638-1.333L49.066,7.248l-5.1,21.337a2.524,2.524,0,0,1-.638,1.333,2.048,2.048,0,0,1-1.333.349Zm42.558.869a22.425,22.425,0,0,1-5.1-.58,14.866,14.866,0,0,1-3.828-1.333,1.927,1.927,0,0,1-1.218-1.855V25.685q0-1.043.755-1.044a1.825,1.825,0,0,1,.608.116c.211.08.492.2.841.349a17.447,17.447,0,0,0,3.653,1.16,19.465,19.465,0,0,0,3.942.407,8.925,8.925,0,0,0,4.842-1.1,3.512,3.512,0,0,0,1.71-3.131,3.2,3.2,0,0,0-.9-2.32,8.557,8.557,0,0,0-3.334-1.74l-4.813-1.507a10.273,10.273,0,0,1-5.3-3.364A7.845,7.845,0,0,1,71.911,8.7a7.37,7.37,0,0,1,.9-3.683A8.881,8.881,0,0,1,75.187,2.29,10.475,10.475,0,0,1,78.637.58,14.708,14.708,0,0,1,82.812,0a17.72,17.72,0,0,1,2.232.143q1.13.146,2.144.379c.678.153,1.305.329,1.885.52a8.712,8.712,0,0,1,1.391.58,3.146,3.146,0,0,1,.986.813,1.863,1.863,0,0,1,.291,1.1V5.1c0,.7-.253,1.044-.755,1.044a3.5,3.5,0,0,1-1.275-.407,15.422,15.422,0,0,0-6.377-1.275,8.683,8.683,0,0,0-4.408.929,3.182,3.182,0,0,0-1.564,2.955,3.143,3.143,0,0,0,.984,2.349A9.851,9.851,0,0,0,82,12.523l4.7,1.509a10.114,10.114,0,0,1,5.131,3.188,7.482,7.482,0,0,1,1.536,4.639,8.382,8.382,0,0,1-.869,3.856,8.776,8.776,0,0,1-2.407,2.927A10.826,10.826,0,0,1,86.407,30.5a16.463,16.463,0,0,1-4.7.638" transform="translate(1.581 0.308)" fill="#fff"/>
    <path id="Path_135" data-name="Path 135" d="M90.064,27.87C79.155,35.921,63.34,40.2,49.722,40.2A73,73,0,0,1,.442,21.4c-1.022-.923-.112-2.18,1.116-1.467A99.206,99.206,0,0,0,50.868,33.017a98.1,98.1,0,0,0,37.61-7.7c1.845-.783,3.392,1.216,1.586,2.549" transform="translate(-0.506 19.891)" fill="#fff" fill-rule="evenodd"/>
    <path id="Path_136" data-name="Path 136" d="M54.27,23.665c-1.395-1.786-9.223-.847-12.74-.424-1.064.128-1.23-.8-.271-1.479,6.245-4.384,16.476-3.119,17.666-1.65s-.315,11.74-6.166,16.634c-.9.753-1.758.353-1.357-.642,1.317-3.29,4.265-10.651,2.868-12.439" transform="translate(39.828 18.913)" fill="#fff" fill-rule="evenodd"/>
  </g>
</svg>
