<svg xmlns="http://www.w3.org/2000/svg" xmlns:xlink="http://www.w3.org/1999/xlink" width="92.651" height="73.979" viewBox="0 0 92.651 73.979">
  <defs>
    <clipPath id="clip-path">
      <rect id="Rectangle_1557" data-name="Rectangle 1557" width="92.651" height="73.979" transform="translate(0 0)" fill="none"/>
    </clipPath>
  </defs>
  <g id="Group_2656" data-name="Group 2656" transform="translate(513 195.328)">
    <g id="Group_2655" data-name="Group 2655" transform="translate(-513 -195.328)" clip-path="url(#clip-path)">
      <path id="Path_3723" data-name="Path 3723" d="M24.575,34.825c.1-.392.221-.78.3-1.177.653-3.483,1.284-6.97,1.957-10.449a3.426,3.426,0,0,1,1.505-2.261,14.361,14.361,0,0,1,11.6-2.155,13.631,13.631,0,0,1,4.936,2.175,3.665,3.665,0,0,1,1.537,2.6c.295,2.016.665,4.02.991,6.031.219,1.357.417,2.716.624,4.075a.992.992,0,0,0,.215.546A6.227,6.227,0,0,0,48.5,33.4q.966-5.1,1.913-10.2a4.206,4.206,0,0,1,2.441-2.884,14.787,14.787,0,0,1,15.5.546,3.836,3.836,0,0,1,1.683,2.743q.456,2.953.919,5.905c.34,2.144.689,4.287,1.035,6.431.018.11.03.22.052.329a2.563,2.563,0,0,1-1.348,3.26c-.049.032-.126.02-.272.04-.209-1.241-.42-2.474-.625-3.708q-.513-3.08-1.019-6.161c-.3-1.814-.642-3.624-.86-5.448a2.2,2.2,0,0,0-1.133-1.8,12.413,12.413,0,0,0-7.209-1.9,11.641,11.641,0,0,0-6.432,2.23,2.179,2.179,0,0,0-.7,1.276c-.791,4.113-1.533,8.235-2.292,12.354q-.4,2.191-.823,4.379a1.522,1.522,0,0,1-.23.753c-.285.291-.669.653-1.02.662a1.229,1.229,0,0,1-.911-.677,10.268,10.268,0,0,1-.442-2.068c-.312-1.97-.591-3.944-.906-5.914-.406-2.536-.838-5.069-1.252-7.605-.121-.743-.189-1.5-.349-2.231a1.51,1.51,0,0,0-.492-.877,12,12,0,0,0-9.072-2.12,14.147,14.147,0,0,0-4.4,1.573,2.937,2.937,0,0,0-1.523,2.366c-.608,3.332-1.257,6.656-1.88,9.984-.387,2.068-.752,4.141-1.135,6.21a4.528,4.528,0,0,1-.2.7.885.885,0,0,1-1.067.677,1.512,1.512,0,0,1-.9-.809A19.3,19.3,0,0,1,23,38.886q-.5-2.607-.98-5.218c-.309-1.653-.605-3.308-.922-4.959-.334-1.737-.67-3.475-1.04-5.2a1.21,1.21,0,0,0-.463-.682,11.785,11.785,0,0,0-11.118-1.54,16.237,16.237,0,0,0-2.891,1.441,1.813,1.813,0,0,0-.746,1.1c-.53,2.809-.99,5.632-1.477,8.449-.371,2.139-.738,4.28-1.136,6.414A1.768,1.768,0,0,0,2.9,40.561c.2.159.494.393.487.583-.017.429-.068,1.02-.344,1.23a1.387,1.387,0,0,1-1.261-.014A3.484,3.484,0,0,1,.047,38.689c.309-2.126.717-4.237,1.085-6.354.3-1.722.607-3.444.905-5.167.211-1.222.41-2.447.613-3.67a4.69,4.69,0,0,1,2.973-3.417,14.585,14.585,0,0,1,14.538.444,4.619,4.619,0,0,1,2.308,3.644c.323,2.19.8,4.357,1.21,6.534q.385,2.05.763,4.1l.133.02" transform="translate(0 -5.296)" fill="#fff"/>
      <path id="Path_3724" data-name="Path 3724" d="M90.089,28.15H79.338a3.9,3.9,0,0,1-.6-.011,1.068,1.068,0,0,1-1-.986,1.006,1.006,0,0,1,.837-1.116,2.9,2.9,0,0,1,.792-.065c4.64,0,9.281.008,13.921-.015.572,0,.756.124.752.73-.026,4.706-.014,9.414-.015,14.121a3.619,3.619,0,0,1-.01.465,1.061,1.061,0,0,1-.975,1.005,1.08,1.08,0,0,1-1.151-.89,3.892,3.892,0,0,1-.036-.73q0-5.029,0-10.057c0-.232-.028-.463-.042-.694l-.165-.071c-.3.324-.581.66-.891.97Q72.556,49,54.37,67.2c-.492.492-.741.445-1.2-.021C47.946,61.934,42.7,56.714,37.48,51.464c-.465-.467-.7-.441-1.142.006Q21.717,66.126,7.065,80.754c-.8.8-1.4.921-1.93.395s-.415-1.123.393-1.932Q20.948,63.793,36.359,48.36c.45-.452.691-.389,1.11.032Q45.346,56.314,53.25,64.21c.379.381.605.429,1.012.022Q72.07,46.393,89.9,28.574c.077-.077.149-.16.223-.24l-.034-.184" transform="translate(-1.388 -7.489)" fill="#fff"/>
      <path id="Path_3725" data-name="Path 3725" d="M7.185,50.774h13.3c-.241-.95-.455-1.841-.7-2.725q-.916-3.363-1.852-6.721a16.608,16.608,0,0,1-.494-1.72,21.938,21.938,0,0,1-.339-3.018c-.048-2.13,0-4.262-.011-6.393a.98.98,0,0,1,.677-1.033,1.811,1.811,0,0,1,.993.128.709.709,0,0,1,.346.449,3.721,3.721,0,0,1,.144.977c.013,1.887.069,3.777-.014,5.66a13.884,13.884,0,0,0,.71,4.3c.408,1.493.841,2.979,1.259,4.47q.894,3.19,1.781,6.382c.117.424.209.854.337,1.382-.316.025-.608.065-.9.068-.843.009-1.688.028-2.53-.006-.5-.021-.651.155-.646.648.021,2.353-.015,4.706.025,7.059a1.888,1.888,0,0,1-.667,1.568c-.456.412-.846.9-1.265,1.348l-.2-.08c-.02-.245-.056-.49-.057-.736,0-3.019-.017-6.038.01-9.057.006-.595-.189-.761-.765-.753-1.424.021-1.425,0-1.425,1.454,0,3.6-.008,7.192.009,10.789a1.558,1.558,0,0,1-.509,1.232c-.848.814-1.648,1.677-2.51,2.476a1.663,1.663,0,0,1-.921.379c-.615.059-1.244-.021-1.862.028-.594.047-.751-.166-.748-.75C8.4,63.722,8.386,58.86,8.386,54c0-1.011,0-1.011-1.023-1.011H4.252c.168-.652.3-1.2.448-1.738.993-3.609,1.927-7.236,3.011-10.818A16.278,16.278,0,0,0,8.395,35.2c-.043-1.6-.018-3.2,0-4.795.009-.884.385-1.343,1.039-1.342a1.154,1.154,0,0,1,1.123,1.3c.018,2.575.095,5.154-.034,7.723a16.39,16.39,0,0,1-.85,3.4c-.836,3.029-1.685,6.055-2.526,9.083-.011.037.016.084.041.2m5.55,9.283c0-1.885.009-3.769,0-5.654-.011-1.606.234-1.369-1.4-1.43-.632-.023-.78.189-.777.79.023,3.991.012,7.982.012,11.973,0,1.432,0,1.409,1.46,1.423.544,0,.731-.154.723-.716-.029-2.128-.011-4.257-.011-6.386" transform="translate(-1.227 -8.384)" fill="#fff"/>
      <path id="Path_3726" data-name="Path 3726" d="M76.828,58.377c-.009-.216-.028-.431-.028-.647q0-13.489.02-26.977a2.285,2.285,0,0,1,.493-1.423.95.95,0,0,1,1.591.536,3.811,3.811,0,0,1,.066.86q.005,12.556.012,25.112a1.5,1.5,0,0,1-.521,1.224c-.5.451-.963.945-1.441,1.42l-.192-.105" transform="translate(-22.158 -8.383)" fill="#fff"/>
      <path id="Path_3727" data-name="Path 3727" d="M57.876,50.355c-.777-.987-2.033-1.5-2-3.21.117-5.479.041-10.962.048-16.444,0-.5-.088-1.026.423-1.392a1.009,1.009,0,0,1,1.587.412,2.383,2.383,0,0,1,.157.84q.014,9.654.006,19.307c0,.129-.021.258-.033.387l-.192.1" transform="translate(-16.122 -8.391)" fill="#fff"/>
      <path id="Path_3728" data-name="Path 3728" d="M89.071,49.668c-.014-.192-.041-.384-.041-.576,0-6.147-.013-12.3.021-18.442a2.1,2.1,0,0,1,.52-1.34.95.95,0,0,1,1.57.589,4.9,4.9,0,0,1,.055.927c0,5.415,0,10.83.014,16.245a1.6,1.6,0,0,1-.558,1.34c-.493.426-.931.915-1.393,1.377l-.189-.12" transform="translate(-25.686 -8.383)" fill="#fff"/>
      <path id="Path_3729" data-name="Path 3729" d="M43.742,48.245c-.014-.213-.039-.426-.039-.64q0-8.485,0-16.972c0-.5-.047-1.022.482-1.364a1,1,0,0,1,1.53.45,2.945,2.945,0,0,1,.159.973c.009,4.992.017,9.983-.014,14.975a2.108,2.108,0,0,1-.475,1.157,20.167,20.167,0,0,1-1.435,1.539l-.208-.118" transform="translate(-12.609 -8.391)" fill="#fff"/>
      <path id="Path_3730" data-name="Path 3730" d="M82.943,60.647c-.015-.191-.042-.381-.042-.572,0-2.464.013-4.928-.014-7.391-.006-.553.159-.731.714-.726,1.482.014,1.483-.009,1.483,1.47,0,1.576.028,3.153-.021,4.727A1.965,1.965,0,0,1,84.6,59.25a20.071,20.071,0,0,1-1.482,1.481l-.179-.084" transform="translate(-23.915 -14.991)" fill="#fff"/>
      <path id="Path_3731" data-name="Path 3731" d="M15.5,0a5.43,5.43,0,1,0,5.41,5.434A5.416,5.416,0,0,0,15.5,0m.016,8.688a3.223,3.223,0,0,1-3.263-3.227,3.211,3.211,0,0,1,3.205-3.286,3.306,3.306,0,0,1,3.3,3.294A3.316,3.316,0,0,1,15.514,8.69" transform="translate(-2.907 -0.001)" fill="#fff"/>
      <path id="Path_3732" data-name="Path 3732" d="M49.214,0a5.43,5.43,0,1,0,5.346,5.5A5.424,5.424,0,0,0,49.214,0M49.136,8.69A3.21,3.21,0,0,1,45.9,5.442a3.2,3.2,0,0,1,3.219-3.265A3.291,3.291,0,0,1,52.388,5.49a3.3,3.3,0,0,1-3.251,3.2" transform="translate(-12.613 0)" fill="#fff"/>
      <path id="Path_3733" data-name="Path 3733" d="M82.261.011a5.365,5.365,0,0,0-5.406,5.417,5.412,5.412,0,1,0,10.823-.046A5.391,5.391,0,0,0,82.261.011M82.1,8.694A3.331,3.331,0,0,1,79,5.407a3.323,3.323,0,0,1,3.368-3.228A3.261,3.261,0,1,1,82.1,8.694" transform="translate(-22.174 -0.003)" fill="#fff"/>
    </g>
  </g>
</svg>
