<svg id="Group_2660" data-name="Group 2660" xmlns="http://www.w3.org/2000/svg" xmlns:xlink="http://www.w3.org/1999/xlink" width="74.377" height="73.005" viewBox="0 0 74.377 73.005">
  <defs>
    <clipPath id="clip-path">
      <rect id="Rectangle_1559" data-name="Rectangle 1559" width="74.377" height="73.004" fill="none"/>
    </clipPath>
  </defs>
  <g id="Group_2659" data-name="Group 2659" clip-path="url(#clip-path)">
    <path id="Path_3737" data-name="Path 3737" d="M30.01,87.969q-14.3,0-28.605.015a1.247,1.247,0,0,1-1.4-1.4q.025-27.6,0-55.2a1.255,1.255,0,0,1,1.44-1.422q14.092.026,28.183,0a1.233,1.233,0,0,1,1.407,1.4c-.04,3.323-.014,6.648-.015,9.972a1.56,1.56,0,0,1-.1.735.972.972,0,0,1-1.634.247,7.735,7.735,0,0,0-1.72-1.4,4.311,4.311,0,0,0-3.739-.11,4.514,4.514,0,0,0,.268,8.44,4.367,4.367,0,0,0,4.374-.777c.276-.223.5-.511.76-.758a1.008,1.008,0,0,1,1.22-.285.99.99,0,0,1,.572,1.015c0,3.011,0,6.023-.011,9.035,0,.377.078.507.485.5,2.543-.02,5.088-.01,7.631-.01.62,0,.616,0,.393-.566a5.825,5.825,0,0,1,.889-6.22,5.971,5.971,0,0,1,10.008,1.174,5.61,5.61,0,0,1,0,5.177c-.252.5,0,.436.311.436q3.956,0,7.911,0c1.032,0,1.375.339,1.374,1.358Q60,72.973,59.994,86.62c0,.991-.355,1.35-1.332,1.35H30.01M15.517,85.963c4.337,0,8.674-.006,13.012.009.4,0,.492-.11.49-.5-.016-2.933-.005-5.866-.013-8.8a1.1,1.1,0,0,1,.679-1.114.944.944,0,0,1,1.091.3,6.736,6.736,0,0,0,1.464,1.124,4.528,4.528,0,0,0,4.819-.4,4.437,4.437,0,0,0,1.361-6.2A4.483,4.483,0,0,0,32.9,68.563a5.616,5.616,0,0,0-2.067,1.549,1.057,1.057,0,0,1-.521.373,1.011,1.011,0,0,1-1.3-1.1c-.006-2.965-.014-5.929.009-8.893,0-.452-.133-.541-.552-.533-1.4.026-2.808.01-4.212.01-.951,0-1.9,0-2.855,0-.319,0-.422.034-.224.392a6.113,6.113,0,0,1,.653,4.05,6.374,6.374,0,0,1-1.177,2.849,6.543,6.543,0,0,1-3.839,2.526A6.559,6.559,0,0,1,9.17,65.624a6.221,6.221,0,0,1,.271-5.1c.243-.495.229-.545-.314-.545-2.216,0-4.431.009-6.647-.01-.379,0-.468.1-.467.473q.016,12.544,0,25.088c0,.353.092.446.445.445q6.529-.018,13.059-.007m0-53.985c-4.338,0-8.675,0-13.014-.009-.392,0-.493.1-.493.494q.018,12.523,0,25.045c0,.373.1.472.47.47,3.011-.016,6.023-.01,9.035-.008a3.529,3.529,0,0,1,.6.037.946.946,0,0,1,.66,1.506,3.928,3.928,0,0,1-.594.649,4.48,4.48,0,0,0,.96,7.225,4.568,4.568,0,0,0,6.526-2.513,4.4,4.4,0,0,0-.385-3.757,6.722,6.722,0,0,0-1.175-1.368,1.1,1.1,0,0,1-.363-.575,1.078,1.078,0,0,1,1.167-1.22c3.214.033,6.429.014,9.643.016.239,0,.461.046.458-.333-.012-2.216-.007-4.431,0-6.647,0-.313-.1-.4-.389-.234a5.781,5.781,0,0,1-4.2.661,6.353,6.353,0,0,1-5.212-4.988A6.17,6.17,0,0,1,19.92,41.7a6.489,6.489,0,0,1,8.555-2.556c.444.232.534.192.534-.312,0-2.138-.011-4.276.01-6.413,0-.4-.139-.453-.488-.453q-6.507.017-13.014.008M44.483,85.963q6.508,0,13.014.007c.381,0,.511-.092.5-.5-.028-1.029,0-2.06,0-3.089q.005-10.955.019-21.909c0-.421-.111-.515-.521-.512-3.105.018-6.211,0-9.316.016a1.11,1.11,0,0,1-1.108-.689.957.957,0,0,1,.352-1.121c.191-.182.373-.373.558-.563a3.7,3.7,0,0,0,.984-2.063,4.018,4.018,0,0,0-2.906-4.4,3.811,3.811,0,0,0-3.843,1.027,3.9,3.9,0,0,0,.21,5.817,1.56,1.56,0,0,1,.562.781,1,1,0,0,1-1.062,1.2q-5.219.007-10.439-.005c-.366,0-.477.091-.473.471.02,2.106.01,4.214.01,6.32,0,.078-.007.157,0,.234.013.192.1.25.277.15a6.823,6.823,0,0,1,2.093-.734,6.109,6.109,0,0,1,5.287,1.428,6.346,6.346,0,0,1,2.306,5.584,6.249,6.249,0,0,1-1.37,3.462,6.933,6.933,0,0,1-4.238,2.5,5.945,5.945,0,0,1-3.905-.514c-.424-.214-.457-.21-.457.266,0,2.123.009,4.244-.008,6.367,0,.363.077.479.462.477,4.338-.015,8.676-.009,13.014-.009" transform="translate(0 -14.98)" fill="#fff"/>
    <path id="Path_3738" data-name="Path 3738" d="M75.255,5.682a5.676,5.676,0,0,1,4.258,1.979c.206.226.285.111.361-.061.227-.509.441-1.025.654-1.54.749-1.8,1.487-3.612,2.248-5.411A1.019,1.019,0,0,1,84.175.1c2.055.86,4.089,1.776,6.165,2.582,1.746.677,3.452,1.449,5.2,2.109,1.3.49,2.57,1.08,3.858,1.61q3.822,1.573,7.649,3.132c.388.159.774.321,1.155.495a1.044,1.044,0,0,1,.606,1.442c-.546,1.367-1.125,2.72-1.685,4.082-.531,1.29-1.054,2.584-1.585,3.875q-.822,2-1.651,4-.683,1.655-1.362,3.312-.806,1.957-1.613,3.912c-.554,1.347-1.092,2.7-1.672,4.036a2.519,2.519,0,0,1-.841,1.356c-.538.338-.974.02-1.411-.148-1.344-.52-2.669-1.089-4-1.639s-2.685-1.115-4.032-1.661a1.063,1.063,0,0,1-.779-1.084c.032-.564.477-.82.937-.985a3.955,3.955,0,0,0,2.439-2.5,4.935,4.935,0,0,0,.263-2.834,4.285,4.285,0,0,0-2.061-2.9,4.439,4.439,0,0,0-4-.339,4.615,4.615,0,0,0-2.7,2.848,4.33,4.33,0,0,0-.222,2.159c.072.541.433.982.521,1.523a.926.926,0,0,1-.269.93.9.9,0,0,1-.985.235c-1.274-.525-2.551-1.042-3.828-1.56-1.091-.443-2.19-.868-3.271-1.334a14.172,14.172,0,0,1-1.672-.7,1,1,0,0,1-.514-1.365c.345-.9.735-1.776,1.107-2.663q.892-2.121,1.786-4.241c.1-.237-.038-.279-.225-.256a6.075,6.075,0,0,1-2.259-.236,4.624,4.624,0,0,1-1.76-.9,5.881,5.881,0,0,1-2.376-5.242,5.761,5.761,0,0,1,2.34-4.286,5.432,5.432,0,0,1,3.824-1.178M87.673,19.82a5.509,5.509,0,0,1,2.165.489A6.593,6.593,0,0,1,92.938,23a6.608,6.608,0,0,1-1.019,8.067c-.312.312-.274.469.136.635,1.653.663,3.317,1.294,4.945,2.017.262.117.462.075.565-.261.114-.368.3-.713.451-1.071.865-2.11,1.72-4.224,2.592-6.331.71-1.716,1.446-3.421,2.158-5.136.731-1.76,1.443-3.528,2.171-5.29.51-1.232,1.032-2.46,1.548-3.691.1-.23.083-.377-.193-.512-.254-.124-.521-.2-.776-.308q-1.9-.817-3.811-1.6c-1.13-.467-2.266-.918-3.395-1.385-1.287-.532-2.566-1.083-3.854-1.611-1.533-.628-3.076-1.233-4.609-1.863q-2.575-1.058-5.138-2.146c-.36-.152-.54-.046-.671.3-.256.681-.534,1.354-.809,2.027-.729,1.78-1.449,3.563-2.2,5.334-.187.444-.329.972-.92,1.088s-1.021-.2-1.31-.918a3.991,3.991,0,0,0-3.1-2.648,4.047,4.047,0,0,0-4.154,2.047,3.839,3.839,0,0,0,.049,3.8A3.688,3.688,0,0,0,74.482,15.5a4.2,4.2,0,0,0,2.631-.61,1.019,1.019,0,0,1,1.354.2,1.265,1.265,0,0,1,.05,1.289q-.935,2.2-1.867,4.408c-.482,1.142-.955,2.287-1.444,3.426-.128.3-.083.451.251.544a8.679,8.679,0,0,1,.947.379c1.3.537,2.607,1.066,3.9,1.614.377.159.508.06.493-.337a6.164,6.164,0,0,1,.705-3.01,6.576,6.576,0,0,1,6.166-3.583" transform="translate(-34.536 0)" fill="#fff"/>
  </g>
</svg>
