<svg id="Group_2937" data-name="Group 2937" xmlns="http://www.w3.org/2000/svg" width="121.088" height="70" viewBox="0 0 121.088 70">
  <rect id="Rectangle_36" data-name="Rectangle 36" width="19.411" height="19.411" transform="translate(42.917)" fill="#fff"/>
  <rect id="Rectangle_37" data-name="Rectangle 37" width="19.411" height="19.411" transform="translate(64.35)" fill="#fff"/>
  <rect id="Rectangle_38" data-name="Rectangle 38" width="19.411" height="19.411" transform="translate(42.917 21.44)" fill="#fff"/>
  <rect id="Rectangle_39" data-name="Rectangle 39" width="19.411" height="19.411" transform="translate(64.35 21.44)" fill="#fff"/>
  <path id="Path_130" data-name="Path 130" d="M121.087,141.262v-2.947h-3.66v-4.582l-.123.038-3.437,1.052-.067.02v3.472h-5.426v-1.933a3.074,3.074,0,0,1,.6-2.049,2.112,2.112,0,0,1,1.677-.685,3.909,3.909,0,0,1,1.591.362l.135.06v-3.1l-.063-.024a6.2,6.2,0,0,0-2.032-.271,5.96,5.96,0,0,0-2.884.693,4.927,4.927,0,0,0-1.978,1.956,5.823,5.823,0,0,0-.7,2.87v2.126h-2.548v2.947h2.548v12.416h3.659V141.261H113.8v7.891c0,3.249,1.532,4.9,4.555,4.9a7.439,7.439,0,0,0,1.554-.173,4.283,4.283,0,0,0,1.131-.359l.049-.029v-2.974l-.15.1a2.539,2.539,0,0,1-.736.321,2.8,2.8,0,0,1-.722.123,1.959,1.959,0,0,1-1.557-.567,3.057,3.057,0,0,1-.5-1.974v-7.254h3.66ZM94,151.057a3.881,3.881,0,0,1-3.113-1.308,5.551,5.551,0,0,1-1.119-3.693,5.768,5.768,0,0,1,1.119-3.791,3.817,3.817,0,0,1,3.082-1.329,3.761,3.761,0,0,1,3,1.27,5.656,5.656,0,0,1,1.1,3.76,6.035,6.035,0,0,1-1.03,3.807A3.669,3.669,0,0,1,94,151.057m.163-13.113a8.024,8.024,0,0,0-5.98,2.207,8.275,8.275,0,0,0-2.161,6.023,7.833,7.833,0,0,0,2.11,5.75,7.649,7.649,0,0,0,5.661,2.125,7.8,7.8,0,0,0,5.862-2.237,8.254,8.254,0,0,0,2.16-5.963,8.05,8.05,0,0,0-2.027-5.792,7.46,7.46,0,0,0-5.624-2.111m-14.039,0a6.613,6.613,0,0,0-4.238,1.31,4.179,4.179,0,0,0-1.652,3.408,4.769,4.769,0,0,0,.356,1.906A3.839,3.839,0,0,0,75.679,146,9.511,9.511,0,0,0,77.9,147.24a16.662,16.662,0,0,1,1.849.861,2.564,2.564,0,0,1,.814.669,1.5,1.5,0,0,1,.227.871c0,1.032-.773,1.534-2.363,1.534a6.5,6.5,0,0,1-2-.366,7.518,7.518,0,0,1-2.048-1.039l-.152-.108v3.521l.056.026a9.013,9.013,0,0,0,1.939.6,10.428,10.428,0,0,0,2.071.24,7.025,7.025,0,0,0,4.474-1.317,4.26,4.26,0,0,0,1.666-3.49,4.011,4.011,0,0,0-.9-2.64,7.683,7.683,0,0,0-3.045-1.939,7.86,7.86,0,0,1-2.17-1.128,1.58,1.58,0,0,1-.437-1.184,1.318,1.318,0,0,1,.556-1.095A2.5,2.5,0,0,1,80,140.816a6.386,6.386,0,0,1,1.854.285,5.967,5.967,0,0,1,1.619.751l.149.1v-3.341l-.057-.025a7.989,7.989,0,0,0-1.644-.459,10.2,10.2,0,0,0-1.8-.184M64.694,151.057a3.88,3.88,0,0,1-3.112-1.308,5.549,5.549,0,0,1-1.118-3.693,5.77,5.77,0,0,1,1.119-3.791,3.816,3.816,0,0,1,3.082-1.329,3.761,3.761,0,0,1,3,1.27,5.658,5.658,0,0,1,1.1,3.76,6.034,6.034,0,0,1-1.031,3.807,3.668,3.668,0,0,1-3.037,1.283m.163-13.113a8.019,8.019,0,0,0-5.979,2.207,8.272,8.272,0,0,0-2.162,6.023,7.835,7.835,0,0,0,2.109,5.75,7.651,7.651,0,0,0,5.661,2.125,7.8,7.8,0,0,0,5.862-2.237,8.254,8.254,0,0,0,2.16-5.963,8.05,8.05,0,0,0-2.027-5.792,7.464,7.464,0,0,0-5.625-2.111m-13.695,3.031v-2.661H47.548v15.363h3.613v-7.858a5.482,5.482,0,0,1,.9-3.263,2.763,2.763,0,0,1,2.338-1.235,4.25,4.25,0,0,1,1.086.16,2.741,2.741,0,0,1,.843.341l.152.11v-3.643l-.059-.026a3.748,3.748,0,0,0-1.415-.215,3.7,3.7,0,0,0-2.417.867,4.9,4.9,0,0,0-1.39,2.061Zm-10.085-3.031A8.92,8.92,0,0,0,36.682,139a7.116,7.116,0,0,0-2.9,2.981,9.5,9.5,0,0,0-1,4.415,8.144,8.144,0,0,0,.968,3.958,6.808,6.808,0,0,0,2.7,2.734,8.051,8.051,0,0,0,3.951.96,8.65,8.65,0,0,0,4.359-1.021l.047-.027V149.69l-.152.111a6.8,6.8,0,0,1-1.768.921,5.352,5.352,0,0,1-1.731.336,4.45,4.45,0,0,1-3.383-1.319,5.128,5.128,0,0,1-1.248-3.653,5.317,5.317,0,0,1,1.3-3.749,4.425,4.425,0,0,1,3.39-1.4,5.8,5.8,0,0,1,3.44,1.2l.151.11v-3.489l-.049-.027a5.96,5.96,0,0,0-1.672-.566,9.966,9.966,0,0,0-2.02-.217m-10.778.37H26.685v15.363H30.3Zm-1.77-6.544a2.175,2.175,0,0,0-1.539.6,1.993,1.993,0,0,0-.645,1.507,1.935,1.935,0,0,0,.639,1.477,2.2,2.2,0,0,0,1.546.589,2.227,2.227,0,0,0,1.554-.588,1.928,1.928,0,0,0,.646-1.478,2.031,2.031,0,0,0-.628-1.491,2.157,2.157,0,0,0-1.572-.62m-9.016,5.411v16.5H23.2V132.241H18.1l-6.488,15.923-6.3-15.923H0v21.437H3.466v-16.5h.119l6.649,16.5h2.616l6.545-16.5Z" transform="translate(0 -84.049)" fill="#fff"/>
</svg>
