<svg id="Group_2658" data-name="Group 2658" xmlns="http://www.w3.org/2000/svg" xmlns:xlink="http://www.w3.org/1999/xlink" width="67.177" height="83.557" viewBox="0 0 67.177 83.557">
  <defs>
    <clipPath id="clip-path">
      <rect id="Rectangle_1558" data-name="Rectangle 1558" width="67.177" height="83.557" fill="none"/>
    </clipPath>
  </defs>
  <g id="Group_2657" data-name="Group 2657" clip-path="url(#clip-path)">
    <path id="Path_3734" data-name="Path 3734" d="M0,36.558A29.973,29.973,0,0,1,9.139,15.74,29.428,29.428,0,0,1,30.507,6.824a30.7,30.7,0,1,1,.411,61.392C12.8,68.169.05,53.776,0,36.558m10.875,21.7-.006.028H10.9a.646.646,0,0,0,.408.4l.133.143c.217.2.377.466.676.566l0,.04.039,0a1.656,1.656,0,0,0,.658.579.278.278,0,0,0,.224.141c.017.038.022.091.051.112.787.556,1.559,1.137,2.372,1.651a7.466,7.466,0,0,0,1.506.83c-.132-.275-.148-.557-.392-.715.024-.118.017-.224-.112-.281a4.294,4.294,0,0,0-.591-1.227.175.175,0,0,0-.049-.19.635.635,0,0,0-.024-.207c-.282-.575-.466-1.186-.694-1.78a13.768,13.768,0,0,0-.667-1.886.287.287,0,0,0-.033-.288,1.507,1.507,0,0,0-.212-.7.256.256,0,0,0-.031-.278,12.115,12.115,0,0,0-.431-1.749.284.284,0,0,0-.026-.287,3.3,3.3,0,0,0-.221-1.226.676.676,0,0,0-.03-.455c-.059-.9-.172-1.8-.226-2.711a45.005,45.005,0,0,1,.117-6.164,3.986,3.986,0,0,0,.106-1.13.264.264,0,0,0,.035-.277A6.152,6.152,0,0,0,13.7,39.8a.168.168,0,0,0,.026-.2,13.59,13.59,0,0,0,.46-2.012,2.354,2.354,0,0,0,.215-.978.292.292,0,0,0,.032-.285,1.082,1.082,0,0,0,.236-.513,24.2,24.2,0,0,1,.806-2.555c.308-.832.34-.847-.432-1.179-1-.431-2.022-.821-3.035-1.23a.172.172,0,0,0-.19-.039,1.072,1.072,0,0,0-.208-.155q-.966-.4-1.938-.8c-.576-.231-1.155-.452-1.733-.677a.088.088,0,0,0-.127-.018,2.124,2.124,0,0,0-.33-.209c-1.145-.47-2.294-.933-3.441-1.4a.113.113,0,0,0-.175-.01c-.24,0-.211.207-.252.344a27.866,27.866,0,0,0-.873,3.023,8.412,8.412,0,0,0-.3,1.539.266.266,0,0,0-.028.288,11.327,11.327,0,0,0-.374,2.515,26.576,26.576,0,0,0,.2,6.247c.028.2,0,.416.166.577a.81.81,0,0,0,.026.464,1.262,1.262,0,0,0,.225.871.428.428,0,0,0,.039.367,5.11,5.11,0,0,0,.424,1.659.169.169,0,0,0,.036.2,10.634,10.634,0,0,0,.667,1.926.174.174,0,0,0,.04.2,27.277,27.277,0,0,0,1.708,3.7,21.583,21.583,0,0,0,1.812,2.822c-.016.072,0,.121.086.126a2.854,2.854,0,0,0,.728.922l.172.224a3.818,3.818,0,0,0,.973,1.158l0,0c.078.111.115.26.276.294l.126.143c0,.1.06.133.15.13l0,.037.037,0a1.661,1.661,0,0,0,.668.683v.03l.029,0a.244.244,0,0,0,.237.238m6.706-25.025a.644.644,0,0,0-.1.128,23.631,23.631,0,0,0-1.119,3.428c-.078.289-.3.553-.208.885a.174.174,0,0,0-.023.192,3.235,3.235,0,0,0-.139.365,30.705,30.705,0,0,0-.761,4.508,28.939,28.939,0,0,0-.133,5.676,13.157,13.157,0,0,0,.328,2.96.3.3,0,0,0,.022.283,7.415,7.415,0,0,0,.326,2.015,2.441,2.441,0,0,0,.355,1.245.18.18,0,0,0,.026.193,8,8,0,0,0,.527,2.026,27.67,27.67,0,0,0,1.81,4.374,4.753,4.753,0,0,0,.8,1.341c.043-.045.071-.062.081-.087.585-1.439,1.162-2.88,1.754-4.316.514-1.246,1.051-2.483,1.565-3.73s1-2.505,1.514-3.752c.592-1.436,1.206-2.864,1.8-4.3s1.181-2.9,1.774-4.354q.807-1.975,1.622-3.945c.076-.185.164-.359-.13-.425a.169.169,0,0,0-.193-.043,15.473,15.473,0,0,0-1.917-.832c-1.028-.444-2.052-.9-3.112-1.261a.175.175,0,0,0-.191-.037A5.712,5.712,0,0,0,22.4,35.1c-1.282-.564-2.577-1.1-3.886-1.6-.292-.111-.554-.444-.936-.257Zm21.054-23.3c-.043-.17-.148-.154-.226-.178-.745-.234-1.51-.378-2.272-.54a25.314,25.314,0,0,0-5.49-.5,28.254,28.254,0,0,0-7.323,1,31.472,31.472,0,0,0-4.389,1.548A28.246,28.246,0,0,0,14.48,13.8,28.532,28.532,0,0,0,9.005,18.68,27.836,27.836,0,0,0,4.92,24.869c-.409.848-.431.837.4,1.178,1.91.785,3.817,1.575,5.73,2.354,1.694.691,3.4,1.344,5.072,2.1.258.116.407.083.545-.213.452-.968.89-1.949,1.433-2.867a48.167,48.167,0,0,1,4.308-6.271c1.028-1.241,2.181-2.355,3.3-3.5a25.506,25.506,0,0,1,3.1-2.607,33.393,33.393,0,0,1,4.448-2.811q1.344-.7,2.741-1.3c.862-.368,1.751-.654,2.637-.984M30.474,66.291a27.511,27.511,0,0,0,5.628-.484A31.092,31.092,0,0,0,41.327,64.3a28.771,28.771,0,0,0,8.219-4.944,29.676,29.676,0,0,0,4.127-4.385A30.894,30.894,0,0,0,56.9,49.633c.077-.159.1-.294-.119-.385-1.879-.773-3.75-1.567-5.633-2.33-1.912-.775-3.83-1.532-5.719-2.362-.235-.1-.4-.1-.552.2-.657,1.306-1.271,2.633-2.043,3.885a40.753,40.753,0,0,1-4.985,6.691A37.3,37.3,0,0,1,34.2,58.862a35.114,35.114,0,0,1-5.175,3.552,36.415,36.415,0,0,1-3.63,1.764c-.749.306-1.515.559-2.267.852-.088.035-.226.035-.2.18.022.1.138.088.22.108.6.144,1.195.317,1.8.426a26.8,26.8,0,0,0,5.516.547m17.935-37.2c-.109,1.159-.112,2.76-.339,4.357-.2,1.428-.455,2.841-.776,4.244-.238,1.045-.542,2.071-.879,3.089-.156.474-.337.936-.5,1.405-.093.259-.1.5.2.63.62.258,1.243.506,1.865.758.839.34,1.68.674,2.516,1.022,1.051.437,2.095.891,3.147,1.326,1.23.509,2.477.978,3.691,1.522.373.167.5.061.566-.245.225-.973.586-1.9.827-2.875a30.946,30.946,0,0,0,.815-5.71,27.043,27.043,0,0,0-.318-5.327,24.655,24.655,0,0,0-.666-3.277,29.323,29.323,0,0,0-1.3-3.718,33.562,33.562,0,0,0-1.934-3.781,27.673,27.673,0,0,0-4.479-5.622A26.682,26.682,0,0,0,45.1,12.573c-.115-.064-.207-.29-.36-.13-.135.14.017.291.093.432a23.125,23.125,0,0,1,1.254,2.8c.4,1.055.728,2.133,1.035,3.222a31.838,31.838,0,0,1,.866,3.949,39.3,39.3,0,0,1,.424,6.245M42.22,12.181c-.456,1.113-.883,2.153-1.307,3.195-.5,1.236-1,2.473-1.5,3.707-.6,1.464-1.211,2.924-1.817,4.386q-.774,1.868-1.548,3.735-.749,1.808-1.5,3.617-.662,1.607-1.321,3.214c-.361.882-.713,1.767-1.083,2.645a.319.319,0,0,0,.182.464c.223.109.461.185.692.278,1.044.424,2.089.844,3.13,1.275,1.231.509,2.455,1.033,3.686,1.54s2.508.981,3.735,1.532c.37.166.471.065.569-.227.222-.667.428-1.339.657-2a32.573,32.573,0,0,0,1.267-5.313,33.832,33.832,0,0,0,.44-5.678,36.441,36.441,0,0,0-.566-6.324c-.219-1.2-.515-2.385-.842-3.555A28.525,28.525,0,0,0,43.038,13.5a4.555,4.555,0,0,0-.818-1.324m-1.79-.635c-.039-.188-.216-.122-.358-.074-1.229.421-2.469.808-3.662,1.34a34.754,34.754,0,0,0-6.272,3.6,36.429,36.429,0,0,0-5.59,5.154,37.607,37.607,0,0,0-4.782,6.778c-.476.842-.9,1.712-1.3,2.593-.156.342-.08.5.284.606.349.1.671.294,1.01.432,1.6.651,3.2,1.29,4.8,1.948q2.7,1.11,5.386,2.248c.2.086.31.073.4-.154.438-1.072.9-2.134,1.34-3.2.61-1.475,1.208-2.954,1.816-4.43.5-1.206,1-2.407,1.5-3.614.512-1.247,1.012-2.5,1.525-3.745s1.027-2.46,1.535-3.692q.905-2.194,1.8-4.392c.182-.446.363-.893.567-1.4M43.2,43.8c.023-.163-.1-.182-.212-.226-.831-.326-1.665-.647-2.489-.989-1.445-.6-2.881-1.219-4.325-1.821-1.512-.631-3.03-1.248-4.543-1.876-.233-.1-.351-.078-.461.193-.592,1.466-1.218,2.919-1.82,4.382-.659,1.6-1.3,3.206-1.958,4.805-.67,1.625-1.36,3.242-2.03,4.868s-1.321,3.261-1.99,4.888S22,61.291,21.337,62.937c-.081.2-.342.452-.179.631.181.2.422-.08.639-.138A25.821,25.821,0,0,0,26.7,61.5a31.1,31.1,0,0,0,6.909-4.657,36.617,36.617,0,0,0,6.5-7.479,38.648,38.648,0,0,0,2.6-4.484c.168-.358.322-.723.483-1.086" transform="translate(0 -3.599)" fill="#fff"/>
    <path id="Path_3735" data-name="Path 3735" d="M39.627,76.905c1.874,0,3.747-.009,5.621.009.357,0,.456-.107.454-.45q-.018-2.855,0-5.709c0-.384-.121-.513-.5-.515a29.529,29.529,0,0,1-6.258-.767,22.023,22.023,0,0,1-3.89-1.1c-.51-.216-1.053-.352-1.58-.528a1.032,1.032,0,0,1-.667-1.181.979.979,0,0,1,1.315-.614,34.393,34.393,0,0,0,8.534,2.1,38.219,38.219,0,0,0,7.41.079,31.635,31.635,0,0,0,5.081-.883,32.211,32.211,0,0,0,5.515-1.909,36.289,36.289,0,0,0,5.195-2.884,34.558,34.558,0,0,0,6.7-5.878,33.607,33.607,0,0,0,4.38-6.32,36.7,36.7,0,0,0,2.482-5.673,33.848,33.848,0,0,0,1.545-7.458,32.994,32.994,0,0,0,.109-5.208,40.905,40.905,0,0,0-.674-5.2c-.182-.962-.5-1.9-.757-2.847a26.87,26.87,0,0,0-1.425-3.908,33.3,33.3,0,0,0-2.046-3.926A35.5,35.5,0,0,0,72.848,11.5a32.6,32.6,0,0,0-4.58-4.442,38.7,38.7,0,0,0-4.542-3.07c-1.311-.757-2.715-1.3-4.042-2.007a3.2,3.2,0,0,1-.522-.219,1.018,1.018,0,0,1-.4-1.291A1.045,1.045,0,0,1,60.08.089,37.995,37.995,0,0,1,69.1,5.282a34.008,34.008,0,0,1,4.361,4.029,38.1,38.1,0,0,1,3.8,4.937,37.707,37.707,0,0,1,2.227,4.014,32.819,32.819,0,0,1,1.718,4.263c.352,1.1.644,2.224.916,3.354a35.952,35.952,0,0,1,.885,6.417,33.178,33.178,0,0,1-.255,6.355c-.185,1.353-.514,2.682-.8,4.019a43.523,43.523,0,0,1-1.34,4.335,26.976,26.976,0,0,1-1.276,2.848,33.22,33.22,0,0,1-4.009,6.44,36.069,36.069,0,0,1-6.99,6.816,40.072,40.072,0,0,1-5.455,3.346,32.182,32.182,0,0,1-4.84,1.994,34.682,34.682,0,0,1-10.116,1.787c-.341,0-.329.219-.33.446q0,1.439,0,2.877c0,.959.013,1.918-.007,2.876-.008.361.088.48.472.478q5.51-.023,11.02-.005a4.07,4.07,0,0,1,2.946,1.073,3.978,3.978,0,0,1,1.148,2.265c.062.354-.06.543-.454.478a1.211,1.211,0,0,0-.353,0,1,1,0,0,1-1.3-.794c-.275-.882-1.118-1.1-1.969-1.106-2.3-.012-4.6,0-6.9,0H34.351c-1.128,0-2.05.36-2.295,1.644a.316.316,0,0,1-.356.262c-.428-.006-.856-.01-1.283,0-.248.006-.315-.13-.293-.334a3.746,3.746,0,0,1,1.707-2.848,4.512,4.512,0,0,1,2.618-.644c1.726.006,3.452,0,5.179,0" transform="translate(-15.883 0)" fill="#fff"/>
    <path id="Path_3736" data-name="Path 3736" d="M39.2,174.586q-11.328,0-22.657.009c-.377,0-.506-.107-.482-.474a9.128,9.128,0,0,0,0-1.017c-.014-.328.077-.508.45-.456a4.5,4.5,0,0,0,.619.006q22.414,0,44.827-.009c.343,0,.442.115.432.427-.012.368-.017.738,0,1.106.017.337-.125.415-.448.414q-6.505-.016-13.01-.008H39.2" transform="translate(-8.47 -91.039)" fill="#fff"/>
  </g>
</svg>
