<svg xmlns="http://www.w3.org/2000/svg" width="116.472" height="81" viewBox="0 0 116.472 81">
  <g id="Group_857" data-name="Group 857" transform="translate(17.5 32.501)">
    <path id="Subtraction_24" data-name="Subtraction 24" d="M-14747.2,19061a15.489,15.489,0,0,1-5.988-1.312,20.532,20.532,0,0,1-11.471-11.51c-.121-.279-.256-.387-.478-.387a1.19,1.19,0,0,0-.225.023,19.573,19.573,0,0,1-3.584.338,18.188,18.188,0,0,1-6.511-1.207,19.158,19.158,0,0,1-11.587-11.826,19.82,19.82,0,0,1-.963-6.928,17.371,17.371,0,0,1,1.512-7.1,19.173,19.173,0,0,1,7.717-8.842c.254-.16.294-.287.174-.564a22.121,22.121,0,0,1-1.053-13.867,22.227,22.227,0,0,1,7.506-11.754,21.326,21.326,0,0,1,12.133-4.975c.733-.059,1.479-.092,2.218-.092a22.159,22.159,0,0,1,9.643,2.1,23.5,23.5,0,0,1,7.862,6.273c.123.146.216.211.3.211s.193-.086.317-.2l.009-.008.008-.008a19.414,19.414,0,0,1,11.79-5.725,25.619,25.619,0,0,1,2.6-.135c7.038,0,12.787,3.152,17.087,9.363a5.593,5.593,0,0,1,.468.771c.077.164.168.236.291.236a.639.639,0,0,0,.271-.072,23.872,23.872,0,0,1,9.446-2c.661,0,1.332.031,1.99.09a24.534,24.534,0,0,1,20.205,13.057,23.82,23.82,0,0,1,2.979,11.834,24.938,24.938,0,0,1-18.741,24.129,24.787,24.787,0,0,1-6.146.783,24.937,24.937,0,0,1-4.57-.43,1.05,1.05,0,0,0-.165-.014c-.211,0-.321.109-.442.3a18.024,18.024,0,0,1-11.859,8.5,18.039,18.039,0,0,1-3.887.432,18.2,18.2,0,0,1-7.464-1.645.773.773,0,0,0-.309-.088c-.149,0-.235.117-.333.326a21.5,21.5,0,0,1-6.109,7.756,21.591,21.591,0,0,1-9.057,4.025,5.2,5.2,0,0,1-1.123.1c-.47,0-.956,0-1.43-.008h-.126c-.266,0-.533,0-.8,0-.631,0-1.076.008-1.493.029C-14746.789,19060.992-14747,19061-14747.2,19061Zm17.234-34.473c-.112,0-.185.059-.234.191-.139.4-.288.795-.417,1.139l-.016.041a.288.288,0,0,0-.007.24.317.317,0,0,0,.193.145,4.9,4.9,0,0,0,1.522.227,3.744,3.744,0,0,0,2.813-1.068,5.768,5.768,0,0,0,1.241-2.658c.441-1.984.8-4.082,1.116-5.932l.042-.262c.123-.713.251-1.451.38-2.176l.017-.084c.2-1.119.2-1.119,1.373-1.119h.792c.438,0,.446-.039.518-.449v-.021c.022-.115.045-.256.086-.436.013-.059.021-.117.03-.172l0-.018a2.253,2.253,0,0,1,.048-.25.387.387,0,0,0-.014-.344c-.055-.072-.164-.1-.343-.1h-.024c-.2.01-.4.01-.545.01h-.22c-.037,0-.073,0-.108,0h-.8c-.085,0-.18,0-.221-.059a.217.217,0,0,1-.007-.191c.038-.146.075-.295.108-.437l.009-.037a5.8,5.8,0,0,1,.231-.828,1.586,1.586,0,0,1,1.515-1.082,1.749,1.749,0,0,1,.2-.008,2.532,2.532,0,0,1,.782.107.549.549,0,0,0,.163.025c.15,0,.25-.088.311-.287a9.2,9.2,0,0,1,.367-1.008.388.388,0,0,0,.043-.33c-.037-.078-.136-.133-.3-.17a6.7,6.7,0,0,0-1.449-.164,3.781,3.781,0,0,0-3.875,3.037l-.02.07-.018.07c-.028.107-.061.223-.083.336l0,.018c-.21.938-.21.938-1.2.938-.687,0-.687,0-.809.684-.1.549-.145.826-.027.967s.409.137.989.137c.288,0,.433,0,.491.07s.035.2-.011.459l0,.018,0,.018c-.138.752-.272,1.5-.41,2.256v.018l-.038.211c-.232,1.279-.471,2.607-.714,3.91-.051.26-.1.529-.138.777a10.909,10.909,0,0,1-.685,2.654,1.567,1.567,0,0,1-1.58,1.1c-.084,0-.162-.01-.236-.014a2.528,2.528,0,0,1-.664-.133A.873.873,0,0,0-14729.964,19026.527Zm-5.94-5.389c-.121,0-.209.094-.273.3-.076.229-.161.457-.241.668l-.058.15c-.018.049-.037.1-.055.148a.385.385,0,0,0,.193.523,7.116,7.116,0,0,0,3.708,1.082,6.825,6.825,0,0,0,1.671-.2,2.952,2.952,0,0,0,2.38-2.66,2.686,2.686,0,0,0-1.886-2.98c-.318-.143-.656-.26-.979-.369l-.04-.018-.06-.018c-.134-.045-.266-.09-.4-.139s-.258-.09-.427-.145l-.022-.008a5.094,5.094,0,0,1-1.3-.57,1.026,1.026,0,0,1-.486-.875,1.027,1.027,0,0,1,.574-.832,1.906,1.906,0,0,1,.979-.24c.114,0,.225.008.336.018a6.656,6.656,0,0,1,2.508.688.53.53,0,0,0,.247.076c.131,0,.214-.088.279-.3a7.485,7.485,0,0,1,.326-.881c.143-.3.015-.445-.219-.564a6.911,6.911,0,0,0-3.253-.809,4.656,4.656,0,0,0-2.547.645,3.047,3.047,0,0,0-1.343,2.711,2.64,2.64,0,0,0,1.6,2.3,11.634,11.634,0,0,0,1.35.518c.167.053.342.105.476.145a7.884,7.884,0,0,1,1.514.557,1.023,1.023,0,0,1,.671.973,1.184,1.184,0,0,1-.736,1.049,2.388,2.388,0,0,1-1.023.191c-.058,0-.115,0-.173-.006a5.685,5.685,0,0,1-3-1.01A.553.553,0,0,0-14735.9,19021.139Zm-34.7,0c-.119,0-.206.094-.271.3a7.986,7.986,0,0,1-.313.881.437.437,0,0,0,.221.656,7.268,7.268,0,0,0,3.875,1.035h.166a5.466,5.466,0,0,0,1.31-.191,3.069,3.069,0,0,0,2.339-2.668,2.681,2.681,0,0,0-1.839-2.957c-.379-.174-.787-.312-1.146-.437-.058-.018-.115-.039-.172-.057s-.137-.047-.2-.072c-.11-.039-.222-.076-.331-.111l-.1-.037a5.634,5.634,0,0,1-1.236-.52.935.935,0,0,1-.554-.947,1.061,1.061,0,0,1,.722-.9,2.359,2.359,0,0,1,.853-.152c.1,0,.2.006.3.014a6.87,6.87,0,0,1,2.507.688.542.542,0,0,0,.249.08c.127,0,.211-.088.278-.295a6.142,6.142,0,0,1,.333-.883c.141-.3.023-.439-.226-.57a6.434,6.434,0,0,0-2.219-.721,9.082,9.082,0,0,0-1.135-.076,4.425,4.425,0,0,0-2.407.619,3.058,3.058,0,0,0-1.381,2.713,2.636,2.636,0,0,0,1.563,2.287,9.632,9.632,0,0,0,1.344.525l.543.172a7.622,7.622,0,0,1,1.493.551,1.026,1.026,0,0,1,.668.98,1.176,1.176,0,0,1-.741,1.041,2.472,2.472,0,0,1-.987.188c-.093,0-.174,0-.256-.01a5.752,5.752,0,0,1-2.958-1.01A.551.551,0,0,0-14770.6,19021.139Zm55.063-7.918a4.4,4.4,0,0,0-3.764,1.865,5.561,5.561,0,0,0-.934,3.525c0,.059,0,.121,0,.182l0,.09c0,.18-.008.357,0,.537a4.573,4.573,0,0,0,4.362,4.537,5.521,5.521,0,0,0,.554.035,4.429,4.429,0,0,0,4.364-3.127,7.1,7.1,0,0,0-.039-4.619,4.2,4.2,0,0,0-3.724-2.975A7.152,7.152,0,0,0-14715.538,19013.221Zm-26.754-.016a4.561,4.561,0,0,0-4.408,2.9,7.2,7.2,0,0,0-.18,4.537,3.984,3.984,0,0,0,2.318,2.764,7.277,7.277,0,0,0,2.864.59,9.308,9.308,0,0,0,3.081-.576.456.456,0,0,0,.287-.211.434.434,0,0,0-.032-.34,5.951,5.951,0,0,1-.321-.883c-.062-.219-.156-.314-.308-.314a.722.722,0,0,0-.26.063,6.167,6.167,0,0,1-2.317.408c-.211,0-.434-.012-.662-.023a2.61,2.61,0,0,1-2.588-2.645c0-.137.012-.209.058-.256a.358.358,0,0,1,.264-.068c.616.008,1.248.008,1.709.008h1.81l.448,0c.3,0,.595,0,.893,0,.525,0,.91.006,1.249.012h.03a.486.486,0,0,0,.356-.105.464.464,0,0,0,.1-.355c0-.178,0-.355,0-.527a7.582,7.582,0,0,0-.02-.867,4.866,4.866,0,0,0-1.17-2.85A4.325,4.325,0,0,0-14742.292,19013.205Zm53.651,0a4.592,4.592,0,0,0-4.017,2.082,6.71,6.71,0,0,0-.607,5.248,4.113,4.113,0,0,0,3.047,3.135,7.863,7.863,0,0,0,2.2.311,8.733,8.733,0,0,0,2.828-.484c.287-.1.454-.16.5-.266s0-.258-.113-.561l-.027-.084a5.893,5.893,0,0,1-.211-.594c-.064-.229-.16-.328-.316-.328a.655.655,0,0,0-.245.059,6.114,6.114,0,0,1-2.319.412c-.211,0-.433-.012-.66-.023a2.617,2.617,0,0,1-2.6-2.59.422.422,0,0,1,.059-.307.377.377,0,0,1,.27-.074l.025,0c.361.008.776.01,1.348.01.282,0,.562,0,.843,0h3.975c.2,0,.352-.018.375-.264a6.111,6.111,0,0,0-.607-3.664A4.116,4.116,0,0,0-14688.641,19013.209Zm-8.371.006c-2.364,0-4.065,1.047-4.791,2.943a6.681,6.681,0,0,0,.026,4.99,4.08,4.08,0,0,0,2.753,2.525,7.217,7.217,0,0,0,2,.277,8.774,8.774,0,0,0,2.581-.412.39.39,0,0,0,.261-.184.411.411,0,0,0-.035-.324c-.133-.311-.244-.639-.333-.922-.071-.227-.168-.326-.322-.326a.67.67,0,0,0-.239.053,4.338,4.338,0,0,1-1.631.273c-.1,0-.209,0-.32-.008a2.737,2.737,0,0,1-2.793-2.168,5.645,5.645,0,0,1,0-2.66,2.718,2.718,0,0,1,2.865-2.242l.04,0a3.9,3.9,0,0,1,.426.031l.048.006a5,5,0,0,0,.516.037,1.394,1.394,0,0,1,.415.092l.013.006.027.006a1.246,1.246,0,0,0,.431.113.4.4,0,0,0,.3-.125,1.724,1.724,0,0,0,.33-.729l.006-.016a3.245,3.245,0,0,1,.133-.406.386.386,0,0,0,.032-.3c-.037-.076-.119-.129-.28-.182a7.2,7.2,0,0,0-2.116-.344h-.162C-14696.892,19013.215-14696.953,19013.215-14697.012,19013.215Zm-60.6,3.928a5.915,5.915,0,0,0-2.28.41,3.231,3.231,0,0,0-2.1,3.7,3.057,3.057,0,0,0,2.846,2.58,10.167,10.167,0,0,0,1.457.105,18.14,18.14,0,0,0,3.921-.535c.333-.074.394-.234.394-.525-.008-.807-.008-1.625-.006-2.324v-.77h-.007v-.457l0-.418c0-.711,0-1.447-.009-2.178a3.21,3.21,0,0,0-2.959-3.426,7.048,7.048,0,0,0-1.207-.1,10.266,10.266,0,0,0-1.493.119,6.714,6.714,0,0,0-2.1.652c-.211.107-.384.25-.221.572a5.425,5.425,0,0,1,.294.795c.077.268.168.369.32.369a.761.761,0,0,0,.321-.1,6.077,6.077,0,0,1,2.671-.59c.112,0,.281,0,.449.014,1.168.072,1.689.555,1.8,1.666l0,.01c.027.3.042.449-.023.521a.232.232,0,0,1-.178.053,3.361,3.361,0,0,1-.4-.041l-.018,0A12.258,12.258,0,0,0-14757.615,19017.143Zm7.489,6.584c.2,0,.4.01.586.023a.362.362,0,0,0,.1.01.4.4,0,0,0,.293-.092.577.577,0,0,0,.105-.426c-.009-1.762-.009-3.547-.007-5.084,0-.564,0-1.131,0-1.7,0-.285,0-.566,0-.848v-.848c0-1.662-.006-3.379.015-5.08,0-.385-.113-.52-.432-.52-.036,0-.074,0-.116,0-.2.014-.4.025-.59.025s-.37-.012-.54-.025c-.033,0-.065,0-.1,0a.412.412,0,0,0-.3.094.562.562,0,0,0-.1.418c.008,1.6.008,3.219.008,4.615q0,.765,0,1.535c0,.619,0,1.234,0,1.852,0,1.674,0,3.623-.008,5.547,0,.334.063.529.395.529a.58.58,0,0,0,.1-.006l.008,0C-14750.523,19023.736-14750.325,19023.727-14750.126,19023.727Zm41.9-10.309c-.642,0-.654,0-.654.631v7.307c0,.262,0,.527.007.789,0,.355,0,.754,0,1.137a.479.479,0,0,0,.1.359.4.4,0,0,0,.29.092h.061c.13-.012.269-.018.432-.018.116,0,.23,0,.346.006s.235.006.352.006c.589,0,.589,0,.595-.609.007-.574,0-1.158,0-1.725v-.15c-.011-1.162-.023-2.365.052-3.553a2.324,2.324,0,0,1,2.426-2.469,4.488,4.488,0,0,1,.613.051.789.789,0,0,0,.113.008c.183,0,.291-.084.362-.293.093-.283.2-.566.293-.816l.053-.148c.082-.223.116-.354.069-.436s-.178-.117-.436-.166a5.062,5.062,0,0,0-1.02-.109,3.555,3.555,0,0,0-2.582,1.066c0-.078,0-.146,0-.221a1.562,1.562,0,0,1,0-.24.486.486,0,0,0-.073-.4.412.412,0,0,0-.322-.107c-.033,0-.071,0-.11,0l-.009,0a3.651,3.651,0,0,1-.371.014l-.146,0h-.145C-14708.035,19013.418-14708.13,19013.418-14708.225,19013.418Zm-49.413,8.814a4.087,4.087,0,0,1-1.009-.117,1.412,1.412,0,0,1-1.236-1.443,1.507,1.507,0,0,1,1.049-1.6,4.184,4.184,0,0,1,1.5-.256,11.54,11.54,0,0,1,1.609.145l.021,0c.188.02.188.135.188.271v1.273c0,.1,0,.193,0,.291a4.674,4.674,0,0,0,.012.648.613.613,0,0,1-.084.477.617.617,0,0,1-.451.178l-.329.035-.035.006-.034,0C-14756.833,19022.184-14757.24,19022.232-14757.638,19022.232Zm42.2-.025h-.023a2.081,2.081,0,0,1-2.124-1.371,6.009,6.009,0,0,1-.007-4.422,2.073,2.073,0,0,1,2.146-1.387h.015a2.171,2.171,0,0,1,2.17,1.387,5.259,5.259,0,0,1,.374,2.238,5.16,5.16,0,0,1-.389,2.184A2.172,2.172,0,0,1-14715.437,19022.207Zm28.863-4.684c-.025,0-.051,0-.076-.006h-.073c-.229,0-.461,0-.691,0l-.344,0h-.349l-.348,0h-.888c-.089,0-.18,0-.269,0h-.271c-.365,0-.646,0-.951.01h-.032c-.13,0-.2-.016-.238-.064s-.037-.156-.01-.291a2.377,2.377,0,0,1,2.346-2.187,2.9,2.9,0,0,1,.4.027,2.291,2.291,0,0,1,1.959,2.316C-14686.414,19017.5-14686.494,19017.523-14686.573,19017.523Zm-57.931,0h0c-.128,0-.2-.01-.246-.064a.237.237,0,0,1-.018-.207c.318-1.521,1.1-2.266,2.383-2.266a3.376,3.376,0,0,1,.423.027,2.246,2.246,0,0,1,1.9,2.271.25.25,0,0,1-.046.184.234.234,0,0,1-.172.051h-.056l-.026,0h-2.059C-14743.1,19017.518-14743.807,19017.518-14744.5,19017.523Z" transform="translate(14771.004 -19013.002)" fill="#fff" stroke="rgba(0,0,0,0)" stroke-miterlimit="10" stroke-width="1"/>
  </g>
</svg>
