<svg id="Group_2670" data-name="Group 2670" xmlns="http://www.w3.org/2000/svg" xmlns:xlink="http://www.w3.org/1999/xlink" width="194.955" height="30" viewBox="0 0 194.955 30">
  <defs>
    <clipPath id="clip-path">
      <rect id="Rectangle_1561" data-name="Rectangle 1561" width="194.955" height="30" fill="none"/>
    </clipPath>
  </defs>
  <g id="Group_2669" data-name="Group 2669" clip-path="url(#clip-path)">
    <path id="Path_3740" data-name="Path 3740" d="M1501.905,86.543c1.647,0,3.161.028,4.672-.015.573-.016.651.357.783.722q1.809,4.966,3.609,9.936c.052.142.13.273.289.6.682-1.841,1.312-3.528,1.931-5.218.674-1.841,1.349-3.682,2-5.532a.651.651,0,0,1,.745-.5c1.081.024,2.164.044,3.243-.006.548-.025.715.2.879.676,1.153,3.357,2.343,6.7,3.527,10.049a3.307,3.307,0,0,0,.288.479c.959-2.614,1.888-5.14,2.812-7.668.357-.976.725-1.949,1.042-2.938a.755.755,0,0,1,.875-.595c1.328.029,2.658.043,3.985,0,.7-.025.658.208.455.736q-3,7.81-5.965,15.635c-.392,1.03-.839,2.041-1.183,3.086a.789.789,0,0,1-.93.641c-.864-.037-1.731-.035-2.595,0a.8.8,0,0,1-.922-.644c-1.268-3.5-2.587-6.987-3.922-10.565-1.273,3.547-2.527,7-3.742,10.471a.9.9,0,0,1-1.044.742c-1.016-.055-2.2.289-3.01-.127s-.866-1.73-1.223-2.658c-2.122-5.515-4.216-11.041-6.319-16.564l-.28-.739" transform="translate(-1338.213 -77.096)" fill="#fcfcfc"/>
    <path id="Path_3741" data-name="Path 3741" d="M1319,82.806a11.583,11.583,0,0,1,11.577,9.017,11.848,11.848,0,0,1-2.892,10.877c-1.2,1.354-2.056,1.394-3.522.322a7.554,7.554,0,0,0-8.978-.02c-1.52,1.1-2.642.96-3.831-.493a12.27,12.27,0,0,1,.209-16.153A10.126,10.126,0,0,1,1319,82.806m.508,17.64a5.545,5.545,0,0,0,5.693-5.827,5.672,5.672,0,0,0-5.7-5.973,5.609,5.609,0,0,0-5.628,5.927,5.525,5.525,0,0,0,5.635,5.873" transform="translate(-1165.824 -73.781)" fill="#fcfcfc"/>
    <path id="Path_3742" data-name="Path 3742" d="M1118.325,85.65a8.512,8.512,0,0,1,11.742,1A10.4,10.4,0,0,1,1132.5,93.9c.025,3.2-.013,6.408.022,9.611.008.666-.2.831-.836.807-1.264-.048-2.532-.043-3.8,0-.575.019-.731-.152-.725-.724.029-2.865.019-5.73.01-8.595,0-.8-.075-1.6-.077-2.4-.006-2.622-2.31-4.51-5.388-3.778a6.131,6.131,0,0,0-1.435.615,3.226,3.226,0,0,0-2,3.328c.158,3.536.033,7.084.062,10.626.005.6-.152.8-.765.775-1.141-.046-2.287-.053-3.427,0-.68.033-.889-.147-.883-.859.034-4.59.017-9.18.017-13.77,0-1.6.021-3.2-.012-4.806-.011-.527.15-.682.672-.665,1.141.036,2.287.056,3.426-.005.73-.039,1.119.106.961.921a4.365,4.365,0,0,0,0,.669" transform="translate(-991.93 -74.629)" fill="#fcfcfc"/>
    <path id="Path_3743" data-name="Path 3743" d="M754.035,102.853a10.18,10.18,0,0,1-10.289-11.682,9.684,9.684,0,0,1,7.257-8.7c4.09-1.223,7.637-.108,10.612,2.933.512.524.483.829-.066,1.289-.824.691-1.59,1.455-2.351,2.217-.37.371-.594.456-.993-.017a4.884,4.884,0,0,0-5.251-1.632,5.09,5.09,0,0,0-3.768,4.246,5.424,5.424,0,0,0,2.706,5.785,5.359,5.359,0,0,0,6.448-1.363c.6-.745.932-.554,1.475-.072.781.694,1.588,1.361,2.409,2.01.394.312.533.48.135.988a9.947,9.947,0,0,1-8.322,4" transform="translate(-662.606 -73.048)" fill="#fcfcfc"/>
    <path id="Path_3744" data-name="Path 3744" d="M7.215,103.211A13.635,13.635,0,0,1,.357,100.9c-.4-.266-.458-.484-.208-.885Q1.076,98.526,1.941,97c.247-.435.425-.52.88-.18A7.358,7.358,0,0,0,8.07,98.378a3.084,3.084,0,0,0,.883-.233A1.59,1.59,0,0,0,10.076,96.8,1.608,1.608,0,0,0,9.139,95.4a16.266,16.266,0,0,0-3.056-1.269A14.494,14.494,0,0,1,3.466,93c-3.879-2.233-3.817-7.246.1-9.6,2.6-1.561,5.329-1.473,8.109-.643.972.29,2.22.517,2.653,1.335.46.868-.736,1.612-1.134,2.447-.249.521-.5,1.2-.942,1.427-.494.248-.987-.433-1.513-.643a4.993,4.993,0,0,0-3.4-.418c-.731.222-1.318.621-1.379,1.426-.056.723.5,1.1,1.087,1.336,1.136.458,2.288.878,3.44,1.3a9.9,9.9,0,0,1,2.61,1.358,5.748,5.748,0,0,1-.537,9.569,9.863,9.863,0,0,1-5.346,1.326" transform="translate(0 -73.211)" fill="#fcfcfc"/>
    <path id="Path_3745" data-name="Path 3745" d="M474.3,98.7c1.693-3.94,3.327-7.7,4.919-11.487a.906.906,0,0,1,1.016-.655c1.533.034,3.067.012,4.733.012-.582,1.344-1.108,2.577-1.648,3.8q-3.409,7.744-6.817,15.488a1.3,1.3,0,0,1-1.229.819c-2.089.3-3.138-.438-3.962-2.479-2.34-5.8-4.988-11.468-7.512-17.19-.047-.106-.069-.222-.135-.44,1.7,0,3.319,0,4.942,0,.572,0,.547.524.689.842,1.381,3.078,2.73,6.17,4.09,9.257.28.636.57,1.268.914,2.031" transform="translate(-413.131 -77.125)" fill="#fcfcfc"/>
    <path id="Path_3746" data-name="Path 3746" d="M343.356,85.656a8.738,8.738,0,0,1,5.2-1.923c.154,0,.31-.007.463.007,1.365.127,1.392.158,1.392,1.538,0,1.139-.015,2.279.007,3.418.009.467-.1.548-.578.43a5.949,5.949,0,0,0-5.576,1.4,1.886,1.886,0,0,0-.728,1.58c.034,3.725-.006,7.451.036,11.177.008.716-.2.884-.874.856-1.294-.053-2.592-.031-3.888-.007-.473.009-.637-.131-.636-.624q.022-9.422,0-18.844c0-.483.129-.638.62-.625,1.2.033,2.409.056,3.61-.006.74-.039,1.111.126.959.931a4.718,4.718,0,0,0,0,.689" transform="translate(-301.315 -74.606)" fill="#fcfcfc"/>
    <path id="Path_3747" data-name="Path 3747" d="M680.195,96.532c0,3.108-.018,6.215.015,9.323.007.62-.183.793-.78.775-1.294-.037-2.591-.028-3.885,0-.485.009-.7-.082-.7-.645q.03-9.415,0-18.83c0-.484.127-.631.617-.619,1.326.033,2.654.044,3.978,0,.616-.022.773.172.767.772-.029,3.077-.013,6.154-.013,9.231" transform="translate(-601.293 -77.097)" fill="#fcfcfc"/>
    <path id="Path_3748" data-name="Path 3748" d="M671.43,0a3.465,3.465,0,0,1,3.557,3.447,3.418,3.418,0,0,1-3.456,3.434,3.3,3.3,0,0,1-3.375-3.466A3.167,3.167,0,0,1,671.43,0" transform="translate(-595.334 0)" fill="#fcfcfc"/>
    <path id="Path_3749" data-name="Path 3749" d="M930.646,94c1.976.037,3.954.013,5.931.013,1.946,0,3.895-.061,5.837.026.957.043,1.154-.382,1.156-1.162a12.017,12.017,0,0,0-1.72-6.5A8.93,8.93,0,0,0,929.119,83.7a10,10,0,0,0-4.164,7.583c-.554,5.613,2.364,10.668,8.344,11.547a10.409,10.409,0,0,0,9.229-2.975c.37-.363.385-.594-.012-.948a22.161,22.161,0,0,1-1.9-1.885c-.49-.558-.786-.588-1.362-.028a5.4,5.4,0,0,1-9.169-2.208c-.173-.605-.111-.8.567-.787m-.451-4.447a4.557,4.557,0,0,1,4.073-3.064,4.038,4.038,0,0,1,3.669,2.962c.106.46.042.583-.434.572-.569-.013-1.139-.015-1.708-.014s-1.139.006-1.708.006h-1.708q-.854,0-1.708,0c-.292,0-.614.1-.475-.46" transform="translate(-824.085 -73.145)" fill="#fcfcfc"/>
    <path id="Path_3750" data-name="Path 3750" d="M165.674,90.562c-.53-3.8-2.367-6.726-6.034-8.165-4.567-1.792-9.631.658-11.618,5.422-2.466,5.913.136,13.73,7.5,14.762a10.469,10.469,0,0,0,9.3-3.026c.372-.371.278-.572-.034-.88a23.371,23.371,0,0,1-1.846-1.943c-.532-.662-.839-.715-1.529-.073-3.18,2.959-8,1.714-9.107-2.273-.171-.612-.071-.787.593-.773,1.977.041,3.954.015,5.932.015,2.008,0,4.017-.019,6.025.011.592.009.8-.2.878-.776a8.645,8.645,0,0,0-.063-2.3m-5.68-.784c-.569-.018-1.14-.021-1.71-.019s-1.141.008-1.711.008c-.809,0-1.619-.014-2.428-.006-.27,0-.539.008-.809.017-.554.018-.707-.137-.536-.675a4.63,4.63,0,0,1,3.958-2.861,4.224,4.224,0,0,1,3.705,2.87c.128.43.106.684-.471.666" transform="translate(-131.083 -72.893)" fill="#fcfcfc"/>
  </g>
</svg>
